<?xml version='1.0' encoding='ASCII' standalone='yes'?>
<svg xmlns="http://www.w3.org/2000/svg" xmlns:xlink="http://www.w3.org/1999/xlink" viewBox="0 0 2000 2000">
    <style type="text/css">
.bg-color-62905c46{fill:#9cc8d9;}
.st0-8f4e2a33{fill:#dfedf2;}
.st1-8f4e2a33{fill:#467f8c;}
.st0-1675d47c{fill:#467f8c;}
.st1-1675d47c{fill:#dfedf2;}
.st2-1675d47c{fill:#73aabf;}
.st0-9c6d9fcc{fill:#dfedf2;}
.st1-9c6d9fcc{fill:#467f8c;}
.st0-286d181c{fill:#dfedf2;}
.st1-286d181c{fill:#467f8c;}
</style>
    <rect class="bg-color-62905c46" x="0" y="0" width="2000" height="2000"/>
    <clipPath id="visible-box-62905c46">
        <rect x="0" y="0" width="2000" height="2000"/>
    </clipPath>
    <g clip-path="url(#visible-box-62905c46)">
        <g id="286d181c" transform="translate(-1000.0, -1000.0) scale(1, 1) rotate(0, 0, 0)">
            <g transform="translate(0, 0) scale(1.2, 1.2) rotate(0, 0, 0)">
                <g>
                    <path class="st0-286d181c" d="M94.9,375.8H31.8c-17.1,0-30.9-13.8-30.9-30.9v-63.2c0-17.1,13.8-30.9,30.9-30.9h63.2   c17.1,0,30.9,13.8,30.9,30.9v63.2C125.8,362,112,375.8,94.9,375.8z"/>
                    <path class="st0-286d181c" d="M344.9,250.8h-63.2c-17.1,0-30.9-13.8-30.9-30.9v-63.2c0-17.1,13.8-30.9,30.9-30.9h63.2   c17.1,0,30.9,13.8,30.9,30.9v63.2C375.8,237,362,250.8,344.9,250.8z"/>
                    <path class="st1-286d181c" d="M469.9,375.8h-63.2c-17.1,0-30.9-13.8-30.9-30.9v-63.2c0-17.1,13.8-30.9,30.9-30.9h63.2   c17.1,0,30.9,13.8,30.9,30.9v63.2C500.8,362,487,375.8,469.9,375.8z"/>
                </g>
            </g>
        </g>
        <g id="9c6d9fcc" transform="translate(-500.0, -1000.0) scale(1, 1) rotate(0, 0, 0)">
            <g transform="translate(0, 0) scale(1.2, 1.2) rotate(0, 0, 0)">
                <g>
                    <path class="st0-9c6d9fcc" d="M94.9,125.8H31.8c-17.1,0-30.9-13.8-30.9-30.9V31.8c0-17.1,13.8-30.9,30.9-30.9h63.2   c17.1,0,30.9,13.8,30.9,30.9v63.2C125.8,112,112,125.8,94.9,125.8z"/>
                    <path class="st1-9c6d9fcc" d="M94.9,500.8H31.8c-17.1,0-30.9-13.8-30.9-30.9v-63.2c0-17.1,13.8-30.9,30.9-30.9h63.2   c17.1,0,30.9,13.8,30.9,30.9v63.2C125.8,487,112,500.8,94.9,500.8z"/>
                    <path class="st1-9c6d9fcc" d="M469.9,125.8h-63.2c-17.1,0-30.9-13.8-30.9-30.9V31.8c0-17.1,13.8-30.9,30.9-30.9h63.2   c17.1,0,30.9,13.8,30.9,30.9v63.2C500.8,112,487,125.8,469.9,125.8z"/>
                    <path class="st0-9c6d9fcc" d="M469.9,500.8h-63.2c-17.1,0-30.9-13.8-30.9-30.9v-63.2c0-17.1,13.8-30.9,30.9-30.9h63.2   c17.1,0,30.9,13.8,30.9,30.9v63.2C500.8,487,487,500.8,469.9,500.8z"/>
                </g>
            </g>
        </g>
        <g id="286d181c" transform="translate(0.0, -1000.0) scale(1, 1) rotate(0, 0, 0)">
            <g transform="translate(0, 0) scale(1.2, 1.2) rotate(0, 0, 0)">
                <g>
                    <path class="st0-286d181c" d="M94.9,375.8H31.8c-17.1,0-30.9-13.8-30.9-30.9v-63.2c0-17.1,13.8-30.9,30.9-30.9h63.2   c17.1,0,30.9,13.8,30.9,30.9v63.2C125.8,362,112,375.8,94.9,375.8z"/>
                    <path class="st0-286d181c" d="M344.9,250.8h-63.2c-17.1,0-30.9-13.8-30.9-30.9v-63.2c0-17.1,13.8-30.9,30.9-30.9h63.2   c17.1,0,30.9,13.8,30.9,30.9v63.2C375.8,237,362,250.8,344.9,250.8z"/>
                    <path class="st1-286d181c" d="M469.9,375.8h-63.2c-17.1,0-30.9-13.8-30.9-30.9v-63.2c0-17.1,13.8-30.9,30.9-30.9h63.2   c17.1,0,30.9,13.8,30.9,30.9v63.2C500.8,362,487,375.8,469.9,375.8z"/>
                </g>
            </g>
        </g>
        <g id="9c6d9fcc" transform="translate(500.0, -1000.0) scale(1, 1) rotate(0, 0, 0)">
            <g transform="translate(0, 0) scale(1.2, 1.2) rotate(0, 0, 0)">
                <g>
                    <path class="st0-9c6d9fcc" d="M94.9,125.8H31.8c-17.1,0-30.9-13.8-30.9-30.9V31.8c0-17.1,13.8-30.9,30.9-30.9h63.2   c17.1,0,30.9,13.8,30.9,30.9v63.2C125.8,112,112,125.8,94.9,125.8z"/>
                    <path class="st1-9c6d9fcc" d="M94.9,500.8H31.8c-17.1,0-30.9-13.8-30.9-30.9v-63.2c0-17.1,13.8-30.9,30.9-30.9h63.2   c17.1,0,30.9,13.8,30.9,30.9v63.2C125.8,487,112,500.8,94.9,500.8z"/>
                    <path class="st1-9c6d9fcc" d="M469.9,125.8h-63.2c-17.1,0-30.9-13.8-30.9-30.9V31.8c0-17.1,13.8-30.9,30.9-30.9h63.2   c17.1,0,30.9,13.8,30.9,30.9v63.2C500.8,112,487,125.8,469.9,125.8z"/>
                    <path class="st0-9c6d9fcc" d="M469.9,500.8h-63.2c-17.1,0-30.9-13.8-30.9-30.9v-63.2c0-17.1,13.8-30.9,30.9-30.9h63.2   c17.1,0,30.9,13.8,30.9,30.9v63.2C500.8,487,487,500.8,469.9,500.8z"/>
                </g>
            </g>
        </g>
        <g id="286d181c" transform="translate(1000.0, -1000.0) scale(1, 1) rotate(0, 0, 0)">
            <g transform="translate(0, 0) scale(1.2, 1.2) rotate(0, 0, 0)">
                <g>
                    <path class="st0-286d181c" d="M94.9,375.8H31.8c-17.1,0-30.9-13.8-30.9-30.9v-63.2c0-17.1,13.8-30.9,30.9-30.9h63.2   c17.1,0,30.9,13.8,30.9,30.9v63.2C125.8,362,112,375.8,94.9,375.8z"/>
                    <path class="st0-286d181c" d="M344.9,250.8h-63.2c-17.1,0-30.9-13.8-30.9-30.9v-63.2c0-17.1,13.8-30.9,30.9-30.9h63.2   c17.1,0,30.9,13.8,30.9,30.9v63.2C375.8,237,362,250.8,344.9,250.8z"/>
                    <path class="st1-286d181c" d="M469.9,375.8h-63.2c-17.1,0-30.9-13.8-30.9-30.9v-63.2c0-17.1,13.8-30.9,30.9-30.9h63.2   c17.1,0,30.9,13.8,30.9,30.9v63.2C500.8,362,487,375.8,469.9,375.8z"/>
                </g>
            </g>
        </g>
        <g id="9c6d9fcc" transform="translate(1500.0, -1000.0) scale(1, 1) rotate(0, 0, 0)">
            <g transform="translate(0, 0) scale(1.2, 1.2) rotate(0, 0, 0)">
                <g>
                    <path class="st0-9c6d9fcc" d="M94.9,125.8H31.8c-17.1,0-30.9-13.8-30.9-30.9V31.8c0-17.1,13.8-30.9,30.9-30.9h63.2   c17.1,0,30.9,13.8,30.9,30.9v63.2C125.8,112,112,125.8,94.9,125.8z"/>
                    <path class="st1-9c6d9fcc" d="M94.9,500.8H31.8c-17.1,0-30.9-13.8-30.9-30.9v-63.2c0-17.1,13.8-30.9,30.9-30.9h63.2   c17.1,0,30.9,13.8,30.9,30.9v63.2C125.8,487,112,500.8,94.9,500.8z"/>
                    <path class="st1-9c6d9fcc" d="M469.9,125.8h-63.2c-17.1,0-30.9-13.8-30.9-30.9V31.8c0-17.1,13.8-30.9,30.9-30.9h63.2   c17.1,0,30.9,13.8,30.9,30.9v63.2C500.8,112,487,125.8,469.9,125.8z"/>
                    <path class="st0-9c6d9fcc" d="M469.9,500.8h-63.2c-17.1,0-30.9-13.8-30.9-30.9v-63.2c0-17.1,13.8-30.9,30.9-30.9h63.2   c17.1,0,30.9,13.8,30.9,30.9v63.2C500.8,487,487,500.8,469.9,500.8z"/>
                </g>
            </g>
        </g>
        <g id="8f4e2a33" transform="translate(-750.0, -500.0) scale(1, 1) rotate(0, 0, 0)">
            <g transform="translate(0, 0) scale(1.2, 1.2) rotate(0, 0, 0)">
                <g>
                    <path class="st0-8f4e2a33" d="M94.9,125.8H31.8c-17.1,0-30.9-13.8-30.9-30.9V31.8c0-17.1,13.8-30.9,30.9-30.9h63.2   c17.1,0,30.9,13.8,30.9,30.9v63.2C125.8,112,112,125.8,94.9,125.8z"/>
                    <path class="st1-8f4e2a33" d="M94.9,500.8H31.8c-17.1,0-30.9-13.8-30.9-30.9v-63.2c0-17.1,13.8-30.9,30.9-30.9h63.2   c17.1,0,30.9,13.8,30.9,30.9v63.2C125.8,487,112,500.8,94.9,500.8z"/>
                    <path class="st1-8f4e2a33" d="M469.9,125.8h-63.2c-17.1,0-30.9-13.8-30.9-30.9V31.8c0-17.1,13.8-30.9,30.9-30.9h63.2   c17.1,0,30.9,13.8,30.9,30.9v63.2C500.8,112,487,125.8,469.9,125.8z"/>
                    <path class="st0-8f4e2a33" d="M469.9,500.8h-63.2c-17.1,0-30.9-13.8-30.9-30.9v-63.2c0-17.1,13.8-30.9,30.9-30.9h63.2   c17.1,0,30.9,13.8,30.9,30.9v63.2C500.8,487,487,500.8,469.9,500.8z"/>
                </g>
            </g>
        </g>
        <g id="1675d47c" transform="translate(-250.0, -500.0) scale(1, 1) rotate(0, 0, 0)">
            <g transform="translate(0, 0) scale(1.2, 1.2) rotate(0, 0, 0)">
                <g>
                    <path class="st0-1675d47c" d="M219.9,250.8h-63.2c-17.1,0-30.9-13.8-30.9-30.9v-63.2c0-17.1,13.8-30.9,30.9-30.9h63.2   c17.1,0,30.9,13.8,30.9,30.9v63.2C250.8,237,237,250.8,219.9,250.8z"/>
                    <path class="st1-1675d47c" d="M344.9,250.8h-63.2c-17.1,0-30.9-13.8-30.9-30.9v-63.2c0-17.1,13.8-30.9,30.9-30.9h63.2   c17.1,0,30.9,13.8,30.9,30.9v63.2C375.8,237,362,250.8,344.9,250.8z"/>
                    <path class="st2-1675d47c" d="M344.9,375.8h-63.2c-17.1,0-30.9-13.8-30.9-30.9v-63.2c0-17.1,13.8-30.9,30.9-30.9h63.2   c17.1,0,30.9,13.8,30.9,30.9v63.2C375.8,362,362,375.8,344.9,375.8z"/>
                </g>
            </g>
        </g>
        <g id="8f4e2a33" transform="translate(250.0, -500.0) scale(1, 1) rotate(0, 0, 0)">
            <g transform="translate(0, 0) scale(1.2, 1.2) rotate(0, 0, 0)">
                <g>
                    <path class="st0-8f4e2a33" d="M94.9,125.8H31.8c-17.1,0-30.9-13.8-30.9-30.9V31.8c0-17.1,13.8-30.9,30.9-30.9h63.2   c17.1,0,30.9,13.8,30.9,30.9v63.2C125.8,112,112,125.8,94.9,125.8z"/>
                    <path class="st1-8f4e2a33" d="M94.9,500.8H31.8c-17.1,0-30.9-13.8-30.9-30.9v-63.2c0-17.1,13.8-30.9,30.9-30.9h63.2   c17.1,0,30.9,13.8,30.9,30.9v63.2C125.8,487,112,500.8,94.9,500.8z"/>
                    <path class="st1-8f4e2a33" d="M469.9,125.8h-63.2c-17.1,0-30.9-13.8-30.9-30.9V31.8c0-17.1,13.8-30.9,30.9-30.9h63.2   c17.1,0,30.9,13.8,30.9,30.9v63.2C500.8,112,487,125.8,469.9,125.8z"/>
                    <path class="st0-8f4e2a33" d="M469.9,500.8h-63.2c-17.1,0-30.9-13.8-30.9-30.9v-63.2c0-17.1,13.8-30.9,30.9-30.9h63.2   c17.1,0,30.9,13.8,30.9,30.9v63.2C500.8,487,487,500.8,469.9,500.8z"/>
                </g>
            </g>
        </g>
        <g id="1675d47c" transform="translate(750.0, -500.0) scale(1, 1) rotate(0, 0, 0)">
            <g transform="translate(0, 0) scale(1.2, 1.2) rotate(0, 0, 0)">
                <g>
                    <path class="st0-1675d47c" d="M219.9,250.8h-63.2c-17.1,0-30.9-13.8-30.9-30.9v-63.2c0-17.1,13.8-30.9,30.9-30.9h63.2   c17.1,0,30.9,13.8,30.9,30.9v63.2C250.8,237,237,250.8,219.9,250.8z"/>
                    <path class="st1-1675d47c" d="M344.9,250.8h-63.2c-17.1,0-30.9-13.8-30.9-30.9v-63.2c0-17.1,13.8-30.9,30.9-30.9h63.2   c17.1,0,30.9,13.8,30.9,30.9v63.2C375.8,237,362,250.8,344.9,250.8z"/>
                    <path class="st2-1675d47c" d="M344.9,375.8h-63.2c-17.1,0-30.9-13.8-30.9-30.9v-63.2c0-17.1,13.8-30.9,30.9-30.9h63.2   c17.1,0,30.9,13.8,30.9,30.9v63.2C375.8,362,362,375.8,344.9,375.8z"/>
                </g>
            </g>
        </g>
        <g id="8f4e2a33" transform="translate(1250.0, -500.0) scale(1, 1) rotate(0, 0, 0)">
            <g transform="translate(0, 0) scale(1.2, 1.2) rotate(0, 0, 0)">
                <g>
                    <path class="st0-8f4e2a33" d="M94.9,125.8H31.8c-17.1,0-30.9-13.8-30.9-30.9V31.8c0-17.1,13.8-30.9,30.9-30.9h63.2   c17.1,0,30.9,13.8,30.9,30.9v63.2C125.8,112,112,125.8,94.9,125.8z"/>
                    <path class="st1-8f4e2a33" d="M94.9,500.8H31.8c-17.1,0-30.9-13.8-30.9-30.9v-63.2c0-17.1,13.8-30.9,30.9-30.9h63.2   c17.1,0,30.9,13.8,30.9,30.9v63.2C125.8,487,112,500.8,94.9,500.8z"/>
                    <path class="st1-8f4e2a33" d="M469.9,125.8h-63.2c-17.1,0-30.9-13.8-30.9-30.9V31.8c0-17.1,13.8-30.9,30.9-30.9h63.2   c17.1,0,30.9,13.8,30.9,30.9v63.2C500.8,112,487,125.8,469.9,125.8z"/>
                    <path class="st0-8f4e2a33" d="M469.9,500.8h-63.2c-17.1,0-30.9-13.8-30.9-30.9v-63.2c0-17.1,13.8-30.9,30.9-30.9h63.2   c17.1,0,30.9,13.8,30.9,30.9v63.2C500.8,487,487,500.8,469.9,500.8z"/>
                </g>
            </g>
        </g>
        <g id="1675d47c" transform="translate(1750.0, -500.0) scale(1, 1) rotate(0, 0, 0)">
            <g transform="translate(0, 0) scale(1.2, 1.2) rotate(0, 0, 0)">
                <g>
                    <path class="st0-1675d47c" d="M219.9,250.8h-63.2c-17.1,0-30.9-13.8-30.9-30.9v-63.2c0-17.1,13.8-30.9,30.9-30.9h63.2   c17.1,0,30.9,13.8,30.9,30.9v63.2C250.8,237,237,250.8,219.9,250.8z"/>
                    <path class="st1-1675d47c" d="M344.9,250.8h-63.2c-17.1,0-30.9-13.8-30.9-30.9v-63.2c0-17.1,13.8-30.9,30.9-30.9h63.2   c17.1,0,30.9,13.8,30.9,30.9v63.2C375.8,237,362,250.8,344.9,250.8z"/>
                    <path class="st2-1675d47c" d="M344.9,375.8h-63.2c-17.1,0-30.9-13.8-30.9-30.9v-63.2c0-17.1,13.8-30.9,30.9-30.9h63.2   c17.1,0,30.9,13.8,30.9,30.9v63.2C375.8,362,362,375.8,344.9,375.8z"/>
                </g>
            </g>
        </g>
        <g id="9c6d9fcc" transform="translate(-1000.0, 0.0) scale(1, 1) rotate(0, 0, 0)">
            <g transform="translate(0, 0) scale(1.2, 1.2) rotate(0, 0, 0)">
                <g>
                    <path class="st0-9c6d9fcc" d="M94.9,125.8H31.8c-17.1,0-30.9-13.8-30.9-30.9V31.8c0-17.1,13.8-30.9,30.9-30.9h63.2   c17.1,0,30.9,13.8,30.9,30.9v63.2C125.8,112,112,125.8,94.9,125.8z"/>
                    <path class="st1-9c6d9fcc" d="M94.9,500.8H31.8c-17.1,0-30.9-13.8-30.9-30.9v-63.2c0-17.1,13.8-30.9,30.9-30.9h63.2   c17.1,0,30.9,13.8,30.9,30.9v63.2C125.8,487,112,500.8,94.9,500.8z"/>
                    <path class="st1-9c6d9fcc" d="M469.9,125.8h-63.2c-17.1,0-30.9-13.8-30.9-30.9V31.8c0-17.1,13.8-30.9,30.9-30.9h63.2   c17.1,0,30.9,13.8,30.9,30.9v63.2C500.8,112,487,125.8,469.9,125.8z"/>
                    <path class="st0-9c6d9fcc" d="M469.9,500.8h-63.2c-17.1,0-30.9-13.8-30.9-30.9v-63.2c0-17.1,13.8-30.9,30.9-30.9h63.2   c17.1,0,30.9,13.8,30.9,30.9v63.2C500.8,487,487,500.8,469.9,500.8z"/>
                </g>
            </g>
        </g>
        <g id="286d181c" transform="translate(-500.0, 0.0) scale(1, 1) rotate(0, 0, 0)">
            <g transform="translate(0, 0) scale(1.2, 1.2) rotate(0, 0, 0)">
                <g>
                    <path class="st0-286d181c" d="M94.9,375.8H31.8c-17.1,0-30.9-13.8-30.9-30.9v-63.2c0-17.1,13.8-30.9,30.9-30.9h63.2   c17.1,0,30.9,13.8,30.9,30.9v63.2C125.8,362,112,375.8,94.9,375.8z"/>
                    <path class="st0-286d181c" d="M344.9,250.8h-63.2c-17.1,0-30.9-13.8-30.9-30.9v-63.2c0-17.1,13.8-30.9,30.9-30.9h63.2   c17.1,0,30.9,13.8,30.9,30.9v63.2C375.8,237,362,250.8,344.9,250.8z"/>
                    <path class="st1-286d181c" d="M469.9,375.8h-63.2c-17.1,0-30.9-13.8-30.9-30.9v-63.2c0-17.1,13.8-30.9,30.9-30.9h63.2   c17.1,0,30.9,13.8,30.9,30.9v63.2C500.8,362,487,375.8,469.9,375.8z"/>
                </g>
            </g>
        </g>
        <g id="9c6d9fcc" transform="translate(0.0, 0.0) scale(1, 1) rotate(0, 0, 0)">
            <g transform="translate(0, 0) scale(1.2, 1.2) rotate(0, 0, 0)">
                <g>
                    <path class="st0-9c6d9fcc" d="M94.9,125.8H31.8c-17.1,0-30.9-13.8-30.9-30.9V31.8c0-17.1,13.8-30.9,30.9-30.9h63.2   c17.1,0,30.9,13.8,30.9,30.9v63.2C125.8,112,112,125.8,94.9,125.8z"/>
                    <path class="st1-9c6d9fcc" d="M94.9,500.8H31.8c-17.1,0-30.9-13.8-30.9-30.9v-63.2c0-17.1,13.8-30.9,30.9-30.9h63.2   c17.1,0,30.9,13.8,30.9,30.9v63.2C125.8,487,112,500.8,94.9,500.8z"/>
                    <path class="st1-9c6d9fcc" d="M469.9,125.8h-63.2c-17.1,0-30.9-13.8-30.9-30.9V31.8c0-17.1,13.8-30.9,30.9-30.9h63.2   c17.1,0,30.9,13.8,30.9,30.9v63.2C500.8,112,487,125.8,469.9,125.8z"/>
                    <path class="st0-9c6d9fcc" d="M469.9,500.8h-63.2c-17.1,0-30.9-13.8-30.9-30.9v-63.2c0-17.1,13.8-30.9,30.9-30.9h63.2   c17.1,0,30.9,13.8,30.9,30.9v63.2C500.8,487,487,500.8,469.9,500.8z"/>
                </g>
            </g>
        </g>
        <g id="286d181c" transform="translate(500.0, 0.0) scale(1, 1) rotate(0, 0, 0)">
            <g transform="translate(0, 0) scale(1.2, 1.2) rotate(0, 0, 0)">
                <g>
                    <path class="st0-286d181c" d="M94.9,375.8H31.8c-17.1,0-30.9-13.8-30.9-30.9v-63.2c0-17.1,13.8-30.9,30.9-30.9h63.2   c17.1,0,30.9,13.8,30.9,30.9v63.2C125.8,362,112,375.8,94.9,375.8z"/>
                    <path class="st0-286d181c" d="M344.9,250.8h-63.2c-17.1,0-30.9-13.8-30.9-30.9v-63.2c0-17.1,13.8-30.9,30.9-30.9h63.2   c17.1,0,30.9,13.8,30.9,30.9v63.2C375.8,237,362,250.8,344.9,250.8z"/>
                    <path class="st1-286d181c" d="M469.9,375.8h-63.2c-17.1,0-30.9-13.8-30.9-30.9v-63.2c0-17.1,13.8-30.9,30.9-30.9h63.2   c17.1,0,30.9,13.8,30.9,30.9v63.2C500.8,362,487,375.8,469.9,375.8z"/>
                </g>
            </g>
        </g>
        <g id="9c6d9fcc" transform="translate(1000.0, 0.0) scale(1, 1) rotate(0, 0, 0)">
            <g transform="translate(0, 0) scale(1.2, 1.2) rotate(0, 0, 0)">
                <g>
                    <path class="st0-9c6d9fcc" d="M94.9,125.8H31.8c-17.1,0-30.9-13.8-30.9-30.9V31.8c0-17.1,13.8-30.9,30.9-30.9h63.2   c17.1,0,30.9,13.8,30.9,30.9v63.2C125.8,112,112,125.8,94.9,125.8z"/>
                    <path class="st1-9c6d9fcc" d="M94.9,500.8H31.8c-17.1,0-30.9-13.8-30.9-30.9v-63.2c0-17.1,13.8-30.9,30.9-30.9h63.2   c17.1,0,30.9,13.8,30.9,30.9v63.2C125.8,487,112,500.8,94.9,500.8z"/>
                    <path class="st1-9c6d9fcc" d="M469.9,125.8h-63.2c-17.1,0-30.9-13.8-30.9-30.9V31.8c0-17.1,13.8-30.9,30.9-30.9h63.2   c17.1,0,30.9,13.8,30.9,30.9v63.2C500.8,112,487,125.8,469.9,125.8z"/>
                    <path class="st0-9c6d9fcc" d="M469.9,500.8h-63.2c-17.1,0-30.9-13.8-30.9-30.9v-63.2c0-17.1,13.8-30.9,30.9-30.9h63.2   c17.1,0,30.9,13.8,30.9,30.9v63.2C500.8,487,487,500.8,469.9,500.8z"/>
                </g>
            </g>
        </g>
        <g id="286d181c" transform="translate(1500.0, 0.0) scale(1, 1) rotate(0, 0, 0)">
            <g transform="translate(0, 0) scale(1.2, 1.2) rotate(0, 0, 0)">
                <g>
                    <path class="st0-286d181c" d="M94.9,375.8H31.8c-17.1,0-30.9-13.8-30.9-30.9v-63.2c0-17.1,13.8-30.9,30.9-30.9h63.2   c17.1,0,30.9,13.8,30.9,30.9v63.2C125.8,362,112,375.8,94.9,375.8z"/>
                    <path class="st0-286d181c" d="M344.9,250.8h-63.2c-17.1,0-30.9-13.8-30.9-30.9v-63.2c0-17.1,13.8-30.9,30.9-30.9h63.2   c17.1,0,30.9,13.8,30.9,30.9v63.2C375.8,237,362,250.8,344.9,250.8z"/>
                    <path class="st1-286d181c" d="M469.9,375.8h-63.2c-17.1,0-30.9-13.8-30.9-30.9v-63.2c0-17.1,13.8-30.9,30.9-30.9h63.2   c17.1,0,30.9,13.8,30.9,30.9v63.2C500.8,362,487,375.8,469.9,375.8z"/>
                </g>
            </g>
        </g>
        <g id="1675d47c" transform="translate(-750.0, 500.0) scale(1, 1) rotate(0, 0, 0)">
            <g transform="translate(0, 0) scale(1.2, 1.2) rotate(0, 0, 0)">
                <g>
                    <path class="st0-1675d47c" d="M219.9,250.8h-63.2c-17.1,0-30.9-13.8-30.9-30.9v-63.2c0-17.1,13.8-30.9,30.9-30.9h63.2   c17.1,0,30.9,13.8,30.9,30.9v63.2C250.8,237,237,250.8,219.9,250.8z"/>
                    <path class="st1-1675d47c" d="M344.9,250.8h-63.2c-17.1,0-30.9-13.8-30.9-30.9v-63.2c0-17.1,13.8-30.9,30.9-30.9h63.2   c17.1,0,30.9,13.8,30.9,30.9v63.2C375.8,237,362,250.8,344.9,250.8z"/>
                    <path class="st2-1675d47c" d="M344.9,375.8h-63.2c-17.1,0-30.9-13.8-30.9-30.9v-63.2c0-17.1,13.8-30.9,30.9-30.9h63.2   c17.1,0,30.9,13.8,30.9,30.9v63.2C375.8,362,362,375.8,344.9,375.8z"/>
                </g>
            </g>
        </g>
        <g id="8f4e2a33" transform="translate(-250.0, 500.0) scale(1, 1) rotate(0, 0, 0)">
            <g transform="translate(0, 0) scale(1.2, 1.2) rotate(0, 0, 0)">
                <g>
                    <path class="st0-8f4e2a33" d="M94.9,125.8H31.8c-17.1,0-30.9-13.8-30.9-30.9V31.8c0-17.1,13.8-30.9,30.9-30.9h63.2   c17.1,0,30.9,13.8,30.9,30.9v63.2C125.8,112,112,125.8,94.9,125.8z"/>
                    <path class="st1-8f4e2a33" d="M94.9,500.8H31.8c-17.1,0-30.9-13.8-30.9-30.9v-63.2c0-17.1,13.8-30.9,30.9-30.9h63.2   c17.1,0,30.9,13.8,30.9,30.9v63.2C125.8,487,112,500.8,94.9,500.8z"/>
                    <path class="st1-8f4e2a33" d="M469.9,125.8h-63.2c-17.1,0-30.9-13.8-30.9-30.9V31.8c0-17.1,13.8-30.9,30.9-30.9h63.2   c17.1,0,30.9,13.8,30.9,30.9v63.2C500.8,112,487,125.8,469.9,125.8z"/>
                    <path class="st0-8f4e2a33" d="M469.9,500.8h-63.2c-17.1,0-30.9-13.8-30.9-30.9v-63.2c0-17.1,13.8-30.9,30.9-30.9h63.2   c17.1,0,30.9,13.8,30.9,30.9v63.2C500.8,487,487,500.8,469.9,500.8z"/>
                </g>
            </g>
        </g>
        <g id="1675d47c" transform="translate(250.0, 500.0) scale(1, 1) rotate(0, 0, 0)">
            <g transform="translate(0, 0) scale(1.2, 1.2) rotate(0, 0, 0)">
                <g>
                    <path class="st0-1675d47c" d="M219.9,250.8h-63.2c-17.1,0-30.9-13.8-30.9-30.9v-63.2c0-17.1,13.8-30.9,30.9-30.9h63.2   c17.1,0,30.9,13.8,30.9,30.9v63.2C250.8,237,237,250.8,219.9,250.8z"/>
                    <path class="st1-1675d47c" d="M344.9,250.8h-63.2c-17.1,0-30.9-13.8-30.9-30.9v-63.2c0-17.1,13.8-30.9,30.9-30.9h63.2   c17.1,0,30.9,13.8,30.9,30.9v63.2C375.8,237,362,250.8,344.9,250.8z"/>
                    <path class="st2-1675d47c" d="M344.9,375.8h-63.2c-17.1,0-30.9-13.8-30.9-30.9v-63.2c0-17.1,13.8-30.9,30.9-30.9h63.2   c17.1,0,30.9,13.8,30.9,30.9v63.2C375.8,362,362,375.8,344.9,375.8z"/>
                </g>
            </g>
        </g>
        <g id="8f4e2a33" transform="translate(750.0, 500.0) scale(1, 1) rotate(0, 0, 0)">
            <g transform="translate(0, 0) scale(1.2, 1.2) rotate(0, 0, 0)">
                <g>
                    <path class="st0-8f4e2a33" d="M94.9,125.8H31.8c-17.1,0-30.9-13.8-30.9-30.9V31.8c0-17.1,13.8-30.9,30.9-30.9h63.2   c17.1,0,30.9,13.8,30.9,30.9v63.2C125.8,112,112,125.8,94.9,125.8z"/>
                    <path class="st1-8f4e2a33" d="M94.9,500.8H31.8c-17.1,0-30.9-13.8-30.9-30.9v-63.2c0-17.1,13.8-30.9,30.9-30.9h63.2   c17.1,0,30.9,13.8,30.9,30.9v63.2C125.8,487,112,500.8,94.9,500.8z"/>
                    <path class="st1-8f4e2a33" d="M469.9,125.8h-63.2c-17.1,0-30.9-13.8-30.9-30.9V31.8c0-17.1,13.8-30.9,30.9-30.9h63.2   c17.1,0,30.9,13.8,30.9,30.9v63.2C500.8,112,487,125.8,469.9,125.8z"/>
                    <path class="st0-8f4e2a33" d="M469.9,500.8h-63.2c-17.1,0-30.9-13.8-30.9-30.9v-63.2c0-17.1,13.8-30.9,30.9-30.9h63.2   c17.1,0,30.9,13.8,30.9,30.9v63.2C500.8,487,487,500.8,469.9,500.8z"/>
                </g>
            </g>
        </g>
        <g id="1675d47c" transform="translate(1250.0, 500.0) scale(1, 1) rotate(0, 0, 0)">
            <g transform="translate(0, 0) scale(1.2, 1.2) rotate(0, 0, 0)">
                <g>
                    <path class="st0-1675d47c" d="M219.9,250.8h-63.2c-17.1,0-30.9-13.8-30.9-30.9v-63.2c0-17.1,13.8-30.9,30.9-30.9h63.2   c17.1,0,30.9,13.8,30.9,30.9v63.2C250.8,237,237,250.8,219.9,250.8z"/>
                    <path class="st1-1675d47c" d="M344.9,250.8h-63.2c-17.1,0-30.9-13.8-30.9-30.9v-63.2c0-17.1,13.8-30.9,30.9-30.9h63.2   c17.1,0,30.9,13.8,30.9,30.9v63.2C375.8,237,362,250.8,344.9,250.8z"/>
                    <path class="st2-1675d47c" d="M344.9,375.8h-63.2c-17.1,0-30.9-13.8-30.9-30.9v-63.2c0-17.1,13.8-30.9,30.9-30.9h63.2   c17.1,0,30.9,13.8,30.9,30.9v63.2C375.8,362,362,375.8,344.9,375.8z"/>
                </g>
            </g>
        </g>
        <g id="8f4e2a33" transform="translate(1750.0, 500.0) scale(1, 1) rotate(0, 0, 0)">
            <g transform="translate(0, 0) scale(1.2, 1.2) rotate(0, 0, 0)">
                <g>
                    <path class="st0-8f4e2a33" d="M94.9,125.8H31.8c-17.1,0-30.9-13.8-30.9-30.9V31.8c0-17.1,13.8-30.9,30.9-30.9h63.2   c17.1,0,30.9,13.8,30.9,30.9v63.2C125.8,112,112,125.8,94.9,125.8z"/>
                    <path class="st1-8f4e2a33" d="M94.9,500.8H31.8c-17.1,0-30.9-13.8-30.9-30.9v-63.2c0-17.1,13.8-30.9,30.9-30.9h63.2   c17.1,0,30.9,13.8,30.9,30.9v63.2C125.8,487,112,500.8,94.9,500.8z"/>
                    <path class="st1-8f4e2a33" d="M469.9,125.8h-63.2c-17.1,0-30.9-13.8-30.9-30.9V31.8c0-17.1,13.8-30.9,30.9-30.9h63.2   c17.1,0,30.9,13.8,30.9,30.9v63.2C500.8,112,487,125.8,469.9,125.8z"/>
                    <path class="st0-8f4e2a33" d="M469.9,500.8h-63.2c-17.1,0-30.9-13.8-30.9-30.9v-63.2c0-17.1,13.8-30.9,30.9-30.9h63.2   c17.1,0,30.9,13.8,30.9,30.9v63.2C500.8,487,487,500.8,469.9,500.8z"/>
                </g>
            </g>
        </g>
        <g id="286d181c" transform="translate(-1000.0, 1000.0) scale(1, 1) rotate(0, 0, 0)">
            <g transform="translate(0, 0) scale(1.2, 1.2) rotate(0, 0, 0)">
                <g>
                    <path class="st0-286d181c" d="M94.9,375.8H31.8c-17.1,0-30.9-13.8-30.9-30.9v-63.2c0-17.1,13.8-30.9,30.9-30.9h63.2   c17.1,0,30.9,13.8,30.9,30.9v63.2C125.8,362,112,375.8,94.9,375.8z"/>
                    <path class="st0-286d181c" d="M344.9,250.8h-63.2c-17.1,0-30.9-13.8-30.9-30.9v-63.2c0-17.1,13.8-30.9,30.9-30.9h63.2   c17.1,0,30.9,13.8,30.9,30.9v63.2C375.8,237,362,250.8,344.9,250.8z"/>
                    <path class="st1-286d181c" d="M469.9,375.8h-63.2c-17.1,0-30.9-13.8-30.9-30.9v-63.2c0-17.1,13.8-30.9,30.9-30.9h63.2   c17.1,0,30.9,13.8,30.9,30.9v63.2C500.8,362,487,375.8,469.9,375.8z"/>
                </g>
            </g>
        </g>
        <g id="9c6d9fcc" transform="translate(-500.0, 1000.0) scale(1, 1) rotate(0, 0, 0)">
            <g transform="translate(0, 0) scale(1.2, 1.2) rotate(0, 0, 0)">
                <g>
                    <path class="st0-9c6d9fcc" d="M94.9,125.8H31.8c-17.1,0-30.9-13.8-30.9-30.9V31.8c0-17.1,13.8-30.9,30.9-30.9h63.2   c17.1,0,30.9,13.8,30.9,30.9v63.2C125.8,112,112,125.8,94.9,125.8z"/>
                    <path class="st1-9c6d9fcc" d="M94.9,500.8H31.8c-17.1,0-30.9-13.8-30.9-30.9v-63.2c0-17.1,13.8-30.9,30.9-30.9h63.2   c17.1,0,30.9,13.8,30.9,30.9v63.2C125.8,487,112,500.8,94.9,500.8z"/>
                    <path class="st1-9c6d9fcc" d="M469.9,125.8h-63.2c-17.1,0-30.9-13.8-30.9-30.9V31.8c0-17.1,13.8-30.9,30.9-30.9h63.2   c17.1,0,30.9,13.8,30.9,30.9v63.2C500.8,112,487,125.8,469.9,125.8z"/>
                    <path class="st0-9c6d9fcc" d="M469.9,500.8h-63.2c-17.1,0-30.9-13.8-30.9-30.9v-63.2c0-17.1,13.8-30.9,30.9-30.9h63.2   c17.1,0,30.9,13.8,30.9,30.9v63.2C500.8,487,487,500.8,469.9,500.8z"/>
                </g>
            </g>
        </g>
        <g id="286d181c" transform="translate(0.0, 1000.0) scale(1, 1) rotate(0, 0, 0)">
            <g transform="translate(0, 0) scale(1.2, 1.2) rotate(0, 0, 0)">
                <g>
                    <path class="st0-286d181c" d="M94.9,375.8H31.8c-17.1,0-30.9-13.8-30.9-30.9v-63.2c0-17.1,13.8-30.9,30.9-30.9h63.2   c17.1,0,30.9,13.8,30.9,30.9v63.2C125.8,362,112,375.8,94.9,375.8z"/>
                    <path class="st0-286d181c" d="M344.9,250.8h-63.2c-17.1,0-30.9-13.8-30.9-30.9v-63.2c0-17.1,13.8-30.9,30.9-30.9h63.2   c17.1,0,30.9,13.8,30.9,30.9v63.2C375.8,237,362,250.8,344.9,250.8z"/>
                    <path class="st1-286d181c" d="M469.9,375.8h-63.2c-17.1,0-30.9-13.8-30.9-30.9v-63.2c0-17.1,13.8-30.9,30.9-30.9h63.2   c17.1,0,30.9,13.8,30.9,30.9v63.2C500.8,362,487,375.8,469.9,375.8z"/>
                </g>
            </g>
        </g>
        <g id="9c6d9fcc" transform="translate(500.0, 1000.0) scale(1, 1) rotate(0, 0, 0)">
            <g transform="translate(0, 0) scale(1.2, 1.2) rotate(0, 0, 0)">
                <g>
                    <path class="st0-9c6d9fcc" d="M94.9,125.8H31.8c-17.1,0-30.9-13.8-30.9-30.9V31.8c0-17.1,13.8-30.9,30.9-30.9h63.2   c17.1,0,30.9,13.8,30.9,30.9v63.2C125.8,112,112,125.8,94.9,125.8z"/>
                    <path class="st1-9c6d9fcc" d="M94.9,500.8H31.8c-17.1,0-30.9-13.8-30.9-30.9v-63.2c0-17.1,13.8-30.9,30.9-30.9h63.2   c17.1,0,30.9,13.8,30.9,30.9v63.2C125.8,487,112,500.8,94.9,500.8z"/>
                    <path class="st1-9c6d9fcc" d="M469.9,125.8h-63.2c-17.1,0-30.9-13.8-30.9-30.9V31.8c0-17.1,13.8-30.9,30.9-30.9h63.2   c17.1,0,30.9,13.8,30.9,30.9v63.2C500.8,112,487,125.8,469.9,125.8z"/>
                    <path class="st0-9c6d9fcc" d="M469.9,500.8h-63.2c-17.1,0-30.9-13.8-30.9-30.9v-63.2c0-17.1,13.8-30.9,30.9-30.9h63.2   c17.1,0,30.9,13.8,30.9,30.9v63.2C500.8,487,487,500.8,469.9,500.8z"/>
                </g>
            </g>
        </g>
        <g id="286d181c" transform="translate(1000.0, 1000.0) scale(1, 1) rotate(0, 0, 0)">
            <g transform="translate(0, 0) scale(1.2, 1.2) rotate(0, 0, 0)">
                <g>
                    <path class="st0-286d181c" d="M94.9,375.8H31.8c-17.1,0-30.9-13.8-30.9-30.9v-63.2c0-17.1,13.8-30.9,30.9-30.9h63.2   c17.1,0,30.9,13.8,30.9,30.9v63.2C125.8,362,112,375.8,94.9,375.8z"/>
                    <path class="st0-286d181c" d="M344.9,250.8h-63.2c-17.1,0-30.9-13.8-30.9-30.9v-63.2c0-17.1,13.8-30.9,30.9-30.9h63.2   c17.1,0,30.9,13.8,30.9,30.9v63.2C375.8,237,362,250.8,344.9,250.8z"/>
                    <path class="st1-286d181c" d="M469.9,375.8h-63.2c-17.1,0-30.9-13.8-30.9-30.9v-63.2c0-17.1,13.8-30.9,30.9-30.9h63.2   c17.1,0,30.9,13.8,30.9,30.9v63.2C500.8,362,487,375.8,469.9,375.8z"/>
                </g>
            </g>
        </g>
        <g id="9c6d9fcc" transform="translate(1500.0, 1000.0) scale(1, 1) rotate(0, 0, 0)">
            <g transform="translate(0, 0) scale(1.2, 1.2) rotate(0, 0, 0)">
                <g>
                    <path class="st0-9c6d9fcc" d="M94.9,125.8H31.8c-17.1,0-30.9-13.8-30.9-30.9V31.8c0-17.1,13.8-30.9,30.9-30.9h63.2   c17.1,0,30.9,13.8,30.9,30.9v63.2C125.8,112,112,125.8,94.9,125.8z"/>
                    <path class="st1-9c6d9fcc" d="M94.9,500.8H31.8c-17.1,0-30.9-13.8-30.9-30.9v-63.2c0-17.1,13.8-30.9,30.9-30.9h63.2   c17.1,0,30.9,13.8,30.9,30.9v63.2C125.8,487,112,500.8,94.9,500.8z"/>
                    <path class="st1-9c6d9fcc" d="M469.9,125.8h-63.2c-17.1,0-30.9-13.8-30.9-30.9V31.8c0-17.1,13.8-30.9,30.9-30.9h63.2   c17.1,0,30.9,13.8,30.9,30.9v63.2C500.8,112,487,125.8,469.9,125.8z"/>
                    <path class="st0-9c6d9fcc" d="M469.9,500.8h-63.2c-17.1,0-30.9-13.8-30.9-30.9v-63.2c0-17.1,13.8-30.9,30.9-30.9h63.2   c17.1,0,30.9,13.8,30.9,30.9v63.2C500.8,487,487,500.8,469.9,500.8z"/>
                </g>
            </g>
        </g>
        <g id="8f4e2a33" transform="translate(-750.0, 1500.0) scale(1, 1) rotate(0, 0, 0)">
            <g transform="translate(0, 0) scale(1.2, 1.2) rotate(0, 0, 0)">
                <g>
                    <path class="st0-8f4e2a33" d="M94.9,125.8H31.8c-17.1,0-30.9-13.8-30.9-30.9V31.8c0-17.1,13.8-30.9,30.9-30.9h63.2   c17.1,0,30.9,13.8,30.9,30.9v63.2C125.8,112,112,125.8,94.9,125.8z"/>
                    <path class="st1-8f4e2a33" d="M94.9,500.8H31.8c-17.1,0-30.9-13.8-30.9-30.9v-63.2c0-17.1,13.8-30.9,30.9-30.9h63.2   c17.1,0,30.9,13.8,30.9,30.9v63.2C125.8,487,112,500.8,94.9,500.8z"/>
                    <path class="st1-8f4e2a33" d="M469.9,125.8h-63.2c-17.1,0-30.9-13.8-30.9-30.9V31.8c0-17.1,13.8-30.9,30.9-30.9h63.2   c17.1,0,30.9,13.8,30.9,30.9v63.2C500.8,112,487,125.8,469.9,125.8z"/>
                    <path class="st0-8f4e2a33" d="M469.9,500.8h-63.2c-17.1,0-30.9-13.8-30.9-30.9v-63.2c0-17.1,13.8-30.9,30.9-30.9h63.2   c17.1,0,30.9,13.8,30.9,30.9v63.2C500.8,487,487,500.8,469.9,500.8z"/>
                </g>
            </g>
        </g>
        <g id="1675d47c" transform="translate(-250.0, 1500.0) scale(1, 1) rotate(0, 0, 0)">
            <g transform="translate(0, 0) scale(1.2, 1.2) rotate(0, 0, 0)">
                <g>
                    <path class="st0-1675d47c" d="M219.9,250.8h-63.2c-17.1,0-30.9-13.8-30.9-30.9v-63.2c0-17.1,13.8-30.9,30.9-30.9h63.2   c17.1,0,30.9,13.8,30.9,30.9v63.2C250.8,237,237,250.8,219.9,250.8z"/>
                    <path class="st1-1675d47c" d="M344.9,250.8h-63.2c-17.1,0-30.9-13.8-30.9-30.9v-63.2c0-17.1,13.8-30.9,30.9-30.9h63.2   c17.1,0,30.9,13.8,30.9,30.9v63.2C375.8,237,362,250.8,344.9,250.8z"/>
                    <path class="st2-1675d47c" d="M344.9,375.8h-63.2c-17.1,0-30.9-13.8-30.9-30.9v-63.2c0-17.1,13.8-30.9,30.9-30.9h63.2   c17.1,0,30.9,13.8,30.9,30.9v63.2C375.8,362,362,375.8,344.9,375.8z"/>
                </g>
            </g>
        </g>
        <g id="8f4e2a33" transform="translate(250.0, 1500.0) scale(1, 1) rotate(0, 0, 0)">
            <g transform="translate(0, 0) scale(1.2, 1.2) rotate(0, 0, 0)">
                <g>
                    <path class="st0-8f4e2a33" d="M94.9,125.8H31.8c-17.1,0-30.9-13.8-30.9-30.9V31.8c0-17.1,13.8-30.9,30.9-30.9h63.2   c17.1,0,30.9,13.8,30.9,30.9v63.2C125.8,112,112,125.8,94.9,125.8z"/>
                    <path class="st1-8f4e2a33" d="M94.9,500.8H31.8c-17.1,0-30.9-13.8-30.9-30.9v-63.2c0-17.1,13.8-30.9,30.9-30.9h63.2   c17.1,0,30.9,13.8,30.9,30.9v63.2C125.8,487,112,500.8,94.9,500.8z"/>
                    <path class="st1-8f4e2a33" d="M469.9,125.8h-63.2c-17.1,0-30.9-13.8-30.9-30.9V31.8c0-17.1,13.8-30.9,30.9-30.9h63.2   c17.1,0,30.9,13.8,30.9,30.9v63.2C500.8,112,487,125.8,469.9,125.8z"/>
                    <path class="st0-8f4e2a33" d="M469.9,500.8h-63.2c-17.1,0-30.9-13.8-30.9-30.9v-63.2c0-17.1,13.8-30.9,30.9-30.9h63.2   c17.1,0,30.9,13.8,30.9,30.9v63.2C500.8,487,487,500.8,469.9,500.8z"/>
                </g>
            </g>
        </g>
        <g id="1675d47c" transform="translate(750.0, 1500.0) scale(1, 1) rotate(0, 0, 0)">
            <g transform="translate(0, 0) scale(1.2, 1.2) rotate(0, 0, 0)">
                <g>
                    <path class="st0-1675d47c" d="M219.9,250.8h-63.2c-17.1,0-30.9-13.8-30.9-30.9v-63.2c0-17.1,13.8-30.9,30.9-30.9h63.2   c17.1,0,30.9,13.8,30.9,30.9v63.2C250.8,237,237,250.8,219.9,250.8z"/>
                    <path class="st1-1675d47c" d="M344.9,250.8h-63.2c-17.1,0-30.9-13.8-30.9-30.9v-63.2c0-17.1,13.8-30.9,30.9-30.9h63.2   c17.1,0,30.9,13.8,30.9,30.9v63.2C375.8,237,362,250.8,344.9,250.8z"/>
                    <path class="st2-1675d47c" d="M344.9,375.8h-63.2c-17.1,0-30.9-13.8-30.9-30.9v-63.2c0-17.1,13.8-30.9,30.9-30.9h63.2   c17.1,0,30.9,13.8,30.9,30.9v63.2C375.8,362,362,375.8,344.9,375.8z"/>
                </g>
            </g>
        </g>
        <g id="8f4e2a33" transform="translate(1250.0, 1500.0) scale(1, 1) rotate(0, 0, 0)">
            <g transform="translate(0, 0) scale(1.2, 1.2) rotate(0, 0, 0)">
                <g>
                    <path class="st0-8f4e2a33" d="M94.9,125.8H31.8c-17.1,0-30.9-13.8-30.9-30.9V31.8c0-17.1,13.8-30.9,30.9-30.9h63.2   c17.1,0,30.9,13.8,30.9,30.9v63.2C125.8,112,112,125.8,94.9,125.8z"/>
                    <path class="st1-8f4e2a33" d="M94.9,500.8H31.8c-17.1,0-30.9-13.8-30.9-30.9v-63.2c0-17.1,13.8-30.9,30.9-30.9h63.2   c17.1,0,30.9,13.8,30.9,30.9v63.2C125.8,487,112,500.8,94.9,500.8z"/>
                    <path class="st1-8f4e2a33" d="M469.9,125.8h-63.2c-17.1,0-30.9-13.8-30.9-30.9V31.8c0-17.1,13.8-30.9,30.9-30.9h63.2   c17.1,0,30.9,13.8,30.9,30.9v63.2C500.8,112,487,125.8,469.9,125.8z"/>
                    <path class="st0-8f4e2a33" d="M469.9,500.8h-63.2c-17.1,0-30.9-13.8-30.9-30.9v-63.2c0-17.1,13.8-30.9,30.9-30.9h63.2   c17.1,0,30.9,13.8,30.9,30.9v63.2C500.8,487,487,500.8,469.9,500.8z"/>
                </g>
            </g>
        </g>
        <g id="1675d47c" transform="translate(1750.0, 1500.0) scale(1, 1) rotate(0, 0, 0)">
            <g transform="translate(0, 0) scale(1.2, 1.2) rotate(0, 0, 0)">
                <g>
                    <path class="st0-1675d47c" d="M219.9,250.8h-63.2c-17.1,0-30.9-13.8-30.9-30.9v-63.2c0-17.1,13.8-30.9,30.9-30.9h63.2   c17.1,0,30.9,13.8,30.9,30.9v63.2C250.8,237,237,250.8,219.9,250.8z"/>
                    <path class="st1-1675d47c" d="M344.9,250.8h-63.2c-17.1,0-30.9-13.8-30.9-30.9v-63.2c0-17.1,13.8-30.9,30.9-30.9h63.2   c17.1,0,30.9,13.8,30.9,30.9v63.2C375.8,237,362,250.8,344.9,250.8z"/>
                    <path class="st2-1675d47c" d="M344.9,375.8h-63.2c-17.1,0-30.9-13.8-30.9-30.9v-63.2c0-17.1,13.8-30.9,30.9-30.9h63.2   c17.1,0,30.9,13.8,30.9,30.9v63.2C375.8,362,362,375.8,344.9,375.8z"/>
                </g>
            </g>
        </g>
        <g id="9c6d9fcc" transform="translate(-1000.0, 2000.0) scale(1, 1) rotate(0, 0, 0)">
            <g transform="translate(0, 0) scale(1.2, 1.2) rotate(0, 0, 0)">
                <g>
                    <path class="st0-9c6d9fcc" d="M94.9,125.8H31.8c-17.1,0-30.9-13.8-30.9-30.9V31.8c0-17.1,13.8-30.9,30.9-30.9h63.2   c17.1,0,30.9,13.8,30.9,30.9v63.2C125.8,112,112,125.8,94.9,125.8z"/>
                    <path class="st1-9c6d9fcc" d="M94.9,500.8H31.8c-17.1,0-30.9-13.8-30.9-30.9v-63.2c0-17.1,13.8-30.9,30.9-30.9h63.2   c17.1,0,30.9,13.8,30.9,30.9v63.2C125.8,487,112,500.8,94.9,500.8z"/>
                    <path class="st1-9c6d9fcc" d="M469.9,125.8h-63.2c-17.1,0-30.9-13.8-30.9-30.9V31.8c0-17.1,13.8-30.9,30.9-30.9h63.2   c17.1,0,30.9,13.8,30.9,30.9v63.2C500.8,112,487,125.8,469.9,125.8z"/>
                    <path class="st0-9c6d9fcc" d="M469.9,500.8h-63.2c-17.1,0-30.9-13.8-30.9-30.9v-63.2c0-17.1,13.8-30.9,30.9-30.9h63.2   c17.1,0,30.9,13.8,30.9,30.9v63.2C500.8,487,487,500.8,469.9,500.8z"/>
                </g>
            </g>
        </g>
        <g id="286d181c" transform="translate(-500.0, 2000.0) scale(1, 1) rotate(0, 0, 0)">
            <g transform="translate(0, 0) scale(1.2, 1.2) rotate(0, 0, 0)">
                <g>
                    <path class="st0-286d181c" d="M94.9,375.8H31.8c-17.1,0-30.9-13.8-30.9-30.9v-63.2c0-17.1,13.8-30.9,30.9-30.9h63.2   c17.1,0,30.9,13.8,30.9,30.9v63.2C125.8,362,112,375.8,94.9,375.8z"/>
                    <path class="st0-286d181c" d="M344.9,250.8h-63.2c-17.1,0-30.9-13.8-30.9-30.9v-63.2c0-17.1,13.8-30.9,30.9-30.9h63.2   c17.1,0,30.9,13.8,30.9,30.9v63.2C375.8,237,362,250.8,344.9,250.8z"/>
                    <path class="st1-286d181c" d="M469.9,375.8h-63.2c-17.1,0-30.9-13.8-30.9-30.9v-63.2c0-17.1,13.8-30.9,30.9-30.9h63.2   c17.1,0,30.9,13.8,30.9,30.9v63.2C500.8,362,487,375.8,469.9,375.8z"/>
                </g>
            </g>
        </g>
        <g id="9c6d9fcc" transform="translate(0.0, 2000.0) scale(1, 1) rotate(0, 0, 0)">
            <g transform="translate(0, 0) scale(1.2, 1.2) rotate(0, 0, 0)">
                <g>
                    <path class="st0-9c6d9fcc" d="M94.9,125.8H31.8c-17.1,0-30.9-13.8-30.9-30.9V31.8c0-17.1,13.8-30.9,30.9-30.9h63.2   c17.1,0,30.9,13.8,30.9,30.9v63.2C125.8,112,112,125.8,94.9,125.8z"/>
                    <path class="st1-9c6d9fcc" d="M94.9,500.8H31.8c-17.1,0-30.9-13.8-30.9-30.9v-63.2c0-17.1,13.8-30.9,30.9-30.9h63.2   c17.1,0,30.9,13.8,30.9,30.9v63.2C125.8,487,112,500.8,94.9,500.8z"/>
                    <path class="st1-9c6d9fcc" d="M469.9,125.8h-63.2c-17.1,0-30.9-13.8-30.9-30.9V31.8c0-17.1,13.8-30.9,30.9-30.9h63.2   c17.1,0,30.9,13.8,30.9,30.9v63.2C500.8,112,487,125.8,469.9,125.8z"/>
                    <path class="st0-9c6d9fcc" d="M469.9,500.8h-63.2c-17.1,0-30.9-13.8-30.9-30.9v-63.2c0-17.1,13.8-30.9,30.9-30.9h63.2   c17.1,0,30.9,13.8,30.9,30.9v63.2C500.8,487,487,500.8,469.9,500.8z"/>
                </g>
            </g>
        </g>
        <g id="286d181c" transform="translate(500.0, 2000.0) scale(1, 1) rotate(0, 0, 0)">
            <g transform="translate(0, 0) scale(1.2, 1.2) rotate(0, 0, 0)">
                <g>
                    <path class="st0-286d181c" d="M94.9,375.8H31.8c-17.1,0-30.9-13.8-30.9-30.9v-63.2c0-17.1,13.8-30.9,30.9-30.9h63.2   c17.1,0,30.9,13.8,30.9,30.9v63.2C125.8,362,112,375.8,94.9,375.8z"/>
                    <path class="st0-286d181c" d="M344.9,250.8h-63.2c-17.1,0-30.9-13.8-30.9-30.9v-63.2c0-17.1,13.8-30.9,30.9-30.9h63.2   c17.1,0,30.9,13.8,30.9,30.9v63.2C375.8,237,362,250.8,344.9,250.8z"/>
                    <path class="st1-286d181c" d="M469.9,375.8h-63.2c-17.1,0-30.9-13.8-30.9-30.9v-63.2c0-17.1,13.8-30.9,30.9-30.9h63.2   c17.1,0,30.9,13.8,30.9,30.9v63.2C500.8,362,487,375.8,469.9,375.8z"/>
                </g>
            </g>
        </g>
        <g id="9c6d9fcc" transform="translate(1000.0, 2000.0) scale(1, 1) rotate(0, 0, 0)">
            <g transform="translate(0, 0) scale(1.2, 1.2) rotate(0, 0, 0)">
                <g>
                    <path class="st0-9c6d9fcc" d="M94.9,125.8H31.8c-17.1,0-30.9-13.8-30.9-30.9V31.8c0-17.1,13.8-30.9,30.9-30.9h63.2   c17.1,0,30.9,13.8,30.9,30.9v63.2C125.8,112,112,125.8,94.9,125.8z"/>
                    <path class="st1-9c6d9fcc" d="M94.9,500.8H31.8c-17.1,0-30.9-13.8-30.9-30.9v-63.2c0-17.1,13.8-30.9,30.9-30.9h63.2   c17.1,0,30.9,13.8,30.9,30.9v63.2C125.8,487,112,500.8,94.9,500.8z"/>
                    <path class="st1-9c6d9fcc" d="M469.9,125.8h-63.2c-17.1,0-30.9-13.8-30.9-30.9V31.8c0-17.1,13.8-30.9,30.9-30.9h63.2   c17.1,0,30.9,13.8,30.9,30.9v63.2C500.8,112,487,125.8,469.9,125.8z"/>
                    <path class="st0-9c6d9fcc" d="M469.9,500.8h-63.2c-17.1,0-30.9-13.8-30.9-30.9v-63.2c0-17.1,13.8-30.9,30.9-30.9h63.2   c17.1,0,30.9,13.8,30.9,30.9v63.2C500.8,487,487,500.8,469.9,500.8z"/>
                </g>
            </g>
        </g>
        <g id="286d181c" transform="translate(1500.0, 2000.0) scale(1, 1) rotate(0, 0, 0)">
            <g transform="translate(0, 0) scale(1.2, 1.2) rotate(0, 0, 0)">
                <g>
                    <path class="st0-286d181c" d="M94.9,375.8H31.8c-17.1,0-30.9-13.8-30.9-30.9v-63.2c0-17.1,13.8-30.9,30.9-30.9h63.2   c17.1,0,30.9,13.8,30.9,30.9v63.2C125.8,362,112,375.8,94.9,375.8z"/>
                    <path class="st0-286d181c" d="M344.9,250.8h-63.2c-17.1,0-30.9-13.8-30.9-30.9v-63.2c0-17.1,13.8-30.9,30.9-30.9h63.2   c17.1,0,30.9,13.8,30.9,30.9v63.2C375.8,237,362,250.8,344.9,250.8z"/>
                    <path class="st1-286d181c" d="M469.9,375.8h-63.2c-17.1,0-30.9-13.8-30.9-30.9v-63.2c0-17.1,13.8-30.9,30.9-30.9h63.2   c17.1,0,30.9,13.8,30.9,30.9v63.2C500.8,362,487,375.8,469.9,375.8z"/>
                </g>
            </g>
        </g>
    </g>
</svg>
